<?xml version="1.0" encoding="iso-8859-1"?>
<!-- Generator: Adobe Illustrator 19.0.0, SVG Export Plug-In . SVG Version: 6.00 Build 0)  -->
<svg version="1.1" id="Capa_1" xmlns="http://www.w3.org/2000/svg" xmlns:xlink="http://www.w3.org/1999/xlink" x="0px" y="0px"
	 viewBox="0 0 419.004 419.004" style="enable-background:new 0 0 419.004 419.004;" xml:space="preserve">
<g>
	<path style="fill:#00BBD3;" d="M356.833,159.347H15.673C6.792,159.347,0,152.555,0,143.673S6.792,128,15.673,128h341.159
		c17.241,0,30.824-13.584,30.824-30.824s-13.584-30.824-30.824-30.824s-30.824,13.584-30.824,30.824
		c0,8.882-6.792,15.673-15.673,15.673c-8.882,0-15.673-6.792-15.673-15.673c0-34.482,27.69-62.171,62.171-62.171
		s62.171,27.69,62.171,62.171S391.314,159.347,356.833,159.347z"/>
	<path style="fill:#00BBD3;" d="M397.061,225.698H15.673C6.792,225.698,0,218.906,0,210.024s6.792-15.673,15.673-15.673h381.388
		c8.882,0,15.673,6.792,15.673,15.673S405.943,225.698,397.061,225.698z"/>
	<path style="fill:#00BBD3;" d="M356.833,384c-34.482,0-62.171-27.69-62.171-62.171c0-8.882,6.792-15.673,15.673-15.673
		c8.882,0,15.673,6.792,15.673,15.673c0,17.241,13.584,30.824,30.824,30.824c17.241,0,30.824-13.584,30.824-30.824
		c0-17.241-13.584-30.824-30.824-30.824H15.673C6.792,291.004,0,284.212,0,275.331c0-8.882,6.792-15.673,15.673-15.673h341.159
		c34.482,0,62.171,27.69,62.171,62.171S391.314,384,356.833,384z"/>
</g>
<g>
</g>
<g>
</g>
<g>
</g>
<g>
</g>
<g>
</g>
<g>
</g>
<g>
</g>
<g>
</g>
<g>
</g>
<g>
</g>
<g>
</g>
<g>
</g>
<g>
</g>
<g>
</g>
<g>
</g>
</svg>
