<?xml version="1.0" encoding="iso-8859-1"?>
<!-- Generator: Adobe Illustrator 19.0.0, SVG Export Plug-In . SVG Version: 6.00 Build 0)  -->
<svg version="1.1" id="Capa_1" xmlns="http://www.w3.org/2000/svg" xmlns:xlink="http://www.w3.org/1999/xlink" x="0px" y="0px"
	 viewBox="0 0 464.001 464.001" style="enable-background:new 0 0 464.001 464.001;" xml:space="preserve">
<path style="fill:#B8DCA6;" d="M184.002,90.473c-9.902-5.716-16.002-16.281-16.002-27.714c0-10.161,2.066-20.102,6.083-29.435
	C180.778,17.771,169.318,0,151.999,0s-28.778,17.772-22.083,33.323c3.984,9.254,6.083,19.312,6.083,29.387
	c0,11.434-6.1,22.047-16.002,27.763l-16.256,9.384c-9.9,5.715-22.097,5.714-31.997-0.001c-8.732-5.041-16.294-11.774-22.321-19.858
	c-4.374-5.866-11.364-9.666-19.246-9.666c-13.255,0-24,10.745-24,24s10.745,24,24,24c6.306-0.002,12.407,1.646,17.862,4.796
	L56,127.723c9.902,5.716,16.002,16.281,16.002,27.714v18.459c0,11.433-6.099,21.997-16.001,27.713l-7.957,4.594
	c-5.423,3.131-11.597,4.799-17.866,4.797c0.005,0,0.002,0,0,0c-13.255,0-24,10.745-24,24s10.745,24,24,24
	c8.882,0,16.634-4.826,20.782-11.999c3.129-5.41,7.632-9.93,13.045-13.055l8.262-4.77c9.902-5.717,22.101-5.716,32.002,0.001
	l47.732,27.562l80-46.194v-92.364L184.002,90.473z"/>
<path style="fill:#DBEDD2;" d="M353.821,352.001c-0.005,0-0.01,0-0.015,0c-6.29,0.005-12.382-1.64-17.829-4.785l-7.976-4.605
	C318.1,336.895,312,326.331,312,314.898v-58.16l-79.999-46.178l-80,46.178v58.159c0,11.433-6.099,21.997-16,27.713l-7.978,4.606
	c-5.414,3.126-11.578,4.79-17.829,4.785c-0.005,0-0.01,0-0.015,0c-13.255,0-24,10.745-24,24s10.745,24,24,24
	c8.882,0,16.634-4.826,20.782-11.999c3.129-5.41,7.632-9.93,13.045-13.055l10.376-5.99c9.902-5.717,22.1-5.716,32.001,0.001
	l13.619,7.864c9.9,5.717,15.998,16.28,15.998,27.712v5.69c0,6.284-1.654,12.483-4.807,17.919c-2.024,3.489-3.193,7.528-3.193,11.859
	c0,13.255,10.745,24,24,24s24-10.745,24-24c0-4.323-1.165-8.356-3.182-11.84c-3.143-5.43-4.818-11.61-4.818-17.884v-5.742
	c0-11.432,6.098-21.995,15.998-27.712l13.62-7.865c9.901-5.717,22.1-5.718,32.002-0.001l10.375,5.99
	c5.445,3.144,9.897,7.613,13.045,13.055c4.148,7.173,11.899,11.999,20.782,11.999c13.255,0,24-10.745,24-24
	S367.075,352.001,353.821,352.001z"/>
<path style="fill:#7BC24D;" d="M433.821,211.001c-6.307,0.002-12.41-1.646-17.866-4.797l-7.956-4.594
	c-9.901-5.716-16-16.28-16-27.713v-18.46c0-11.434,6.1-21.998,16.002-27.714l7.981-4.607c5.413-3.125,11.574-4.788,17.825-4.782
	c0.005,0,0.01,0,0.015,0c13.255,0,24-10.745,24-24s-10.745-24-24-24c-8.883,0-16.635,4.826-20.783,12
	c-3.129,5.411-7.634,9.933-13.046,13.058l-7.736,4.466c-9.9,5.715-22.096,5.715-31.996,0.001l-16.257-9.384
	c-9.902-5.716-16.002-16.281-16.002-27.714v-9.034c0-6.31,1.656-12.423,4.818-17.884c2.018-3.485,3.182-7.517,3.182-11.84
	c0-13.255-10.745-24-24-24s-24,10.745-24,24c0,4.323,1.165,8.356,3.182,11.84c3.143,5.429,4.818,11.61,4.818,17.884v9.035
	c0,11.434-6.1,21.998-16.002,27.714l-47.997,27.706v92.366l79.999,46.194l47.731-27.562c9.901-5.718,22.1-5.718,32.002-0.001
	l8.262,4.77c5.445,3.144,9.897,7.613,13.045,13.055c4.148,7.173,11.899,11.999,20.782,11.999c13.255,0,24-10.745,24-24
	S447.075,211.001,433.821,211.001z"/>
<circle style="fill:#71B847;" cx="312.037" cy="118.362" r="8"/>
<circle style="fill:#CCDEC5;" cx="268.909" cy="264.738" r="8"/>
<g>
	<circle style="fill:#ABCF9A;" cx="200.037" cy="180.666" r="8"/>
	<circle style="fill:#ABCF9A;" cx="110.197" cy="194.562" r="8"/>
	<circle style="fill:#ABCF9A;" cx="143.997" cy="172.666" r="8"/>
</g>
<circle style="fill:#71B847;" cx="337.637" cy="180.666" r="8"/>
<circle style="fill:#CCDEC5;" cx="232.037" cy="348.986" r="8"/>
<circle style="fill:#71B847;" cx="280.037" cy="159.994" r="24"/>
<circle style="fill:#CCDEC5;" cx="224.037" cy="272.738" r="24"/>
<circle style="fill:#ABCF9A;" cx="176.037" cy="134.362" r="24"/>
<circle style="fill:#71B847;" cx="353.637" cy="134.362" r="16"/>
<circle style="fill:#CCDEC5;" cx="268.909" cy="322.658" r="16"/>
<circle style="fill:#ABCF9A;" cx="110.357" cy="142.362" r="16"/>
<circle style="fill:#71B847;" cx="308.909" cy="215.834" r="16"/>
<circle style="fill:#CCDEC5;" cx="192.037" cy="322.658" r="16"/>
<circle style="fill:#ABCF9A;" cx="159.997" cy="210.562" r="16"/>
<g>
</g>
<g>
</g>
<g>
</g>
<g>
</g>
<g>
</g>
<g>
</g>
<g>
</g>
<g>
</g>
<g>
</g>
<g>
</g>
<g>
</g>
<g>
</g>
<g>
</g>
<g>
</g>
<g>
</g>
</svg>
