<?xml version="1.0" encoding="iso-8859-1"?>
<!-- Generator: Adobe Illustrator 19.0.0, SVG Export Plug-In . SVG Version: 6.00 Build 0)  -->
<svg version="1.1" id="Layer_1" xmlns="http://www.w3.org/2000/svg" xmlns:xlink="http://www.w3.org/1999/xlink" x="0px" y="0px"
	 viewBox="0 0 511.999 511.999" style="enable-background:new 0 0 511.999 511.999;" xml:space="preserve">
<path style="fill:#F7B239;" d="M127.968,64.695C156.923,25.447,203.489,0,256.007,0s99.069,25.447,128.024,64.695"/>
<path style="fill:#E09B2D;" d="M255.999,0c-52.515,0.002-99.077,25.448-128.031,64.695h76.957
	C216.475,25.448,235.05,0.002,255.999,0z"/>
<path style="fill:#F95428;" d="M454.246,63.473H57.759l50.548,434.584c0.925,7.947,7.657,13.941,15.658,13.941h132.038h132.038
	c8.001,0,14.733-5.994,15.658-13.941L454.246,63.473z"/>
<g>
	<path style="fill:#E03F20;" d="M57.759,63.473l50.548,434.584c0.925,7.947,7.657,13.941,15.658,13.941h61.57L160.368,63.473H57.759
		z"/>
	<path style="fill:#E03F20;" d="M448.645,131.183H63.355c-5.061,0-9.162-4.102-9.162-9.162s4.101-9.162,9.162-9.162h385.29
		c5.061,0,9.161,4.102,9.161,9.162S453.705,131.183,448.645,131.183z"/>
	<path style="fill:#E03F20;" d="M443.267,177.385H68.732c-5.061,0-9.162-4.102-9.162-9.162c0-5.06,4.101-9.162,9.162-9.162h374.535
		c5.061,0,9.161,4.102,9.161,9.162C452.428,173.283,448.328,177.385,443.267,177.385z"/>
</g>
<path style="fill:#CCCCCC;" d="M493.741,94.134v56.068c0,47.921-14.194,94.107-41.056,133.575
	c-8.343,12.252-17.724,23.624-28.022,34.008c-22.061,22.244-48.348,39.956-77.604,52.086c-0.342,0.134-0.684,0.257-1.051,0.354
	l-79.045,22.024c-0.794,0.232-1.625,0.342-2.455,0.342c-0.684,0-1.368-0.073-2.052-0.232l-96.049-22.024
	c-0.489-0.11-0.989-0.269-1.454-0.464c-28.902-11.983-54.822-29.329-77.054-51.573c-0.195-0.195-0.379-0.379-0.574-0.574
	c-44.537-44.83-69.066-104.295-69.066-167.521V94.134c0-5.057,4.104-9.162,9.162-9.162h32.847l2.125,18.323H36.581v46.907
	c0,49.9,16.552,97.259,47.066,135.822c5.301,6.718,11.043,13.168,17.199,19.325c20.351,20.339,44.036,36.255,70.421,47.298
	l93.02,21.328l76.26-21.242c34.594-14.463,64.68-37.367,87.816-66.745c3.188-4.043,6.254-8.221,9.174-12.521
	c24.785-36.414,37.88-79.033,37.88-123.265v-46.907h-25.799l2.125-18.323h32.835C489.636,84.972,493.741,89.077,493.741,94.134z"/>
<path style="fill:#F7B239;" d="M343.552,371.31c0-16.906-17.028-28.523-32.752-22.315c-16.978,6.704-35.465,10.389-54.797,10.389
	c-19.333,0-37.82-3.685-54.798-10.389c-15.725-6.208-32.752,5.409-32.752,22.315l0,0c0,9.847,6.015,18.699,15.173,22.316
	c22.425,8.857,46.841,13.732,72.378,13.732c25.536,0,49.952-4.875,72.377-13.732C337.538,390.009,343.552,381.157,343.552,371.31
	L343.552,371.31z"/>
<path style="fill:#E09B2D;" d="M206.834,399.734c-9.158-3.617-15.173-12.469-15.173-22.316l0,0
	c0-13.255,10.469-23.256,22.569-23.965c-4.429-1.29-8.776-2.779-13.026-4.456c-15.725-6.209-32.753,5.409-32.753,22.315l0,0
	c0,9.847,6.015,18.699,15.173,22.316c10.853,4.288,22.177,7.631,33.865,9.951C213.893,402.392,210.337,401.118,206.834,399.734z"/>
<g>
</g>
<g>
</g>
<g>
</g>
<g>
</g>
<g>
</g>
<g>
</g>
<g>
</g>
<g>
</g>
<g>
</g>
<g>
</g>
<g>
</g>
<g>
</g>
<g>
</g>
<g>
</g>
<g>
</g>
</svg>
