<?xml version="1.0" encoding="iso-8859-1"?>
<!-- Generator: Adobe Illustrator 19.0.0, SVG Export Plug-In . SVG Version: 6.00 Build 0)  -->
<svg version="1.1" id="Layer_1" xmlns="http://www.w3.org/2000/svg" xmlns:xlink="http://www.w3.org/1999/xlink" x="0px" y="0px"
	 viewBox="0 0 511.997 511.997" style="enable-background:new 0 0 511.997 511.997;" xml:space="preserve">
<g>
	<path style="fill:#D6E5F6;" d="M353.796,235.55l-65.821-65.826c-4.367-4.364-10.285-6.817-16.457-6.817
		c-6.173,0-12.094,2.451-16.457,6.817l-65.827,65.826c-9.089,9.087-9.089,23.823,0,32.912l65.824,65.828
		c4.363,4.364,10.283,6.816,16.457,6.816c6.173,0,12.091-2.451,16.454-6.816l65.824-65.828
		C362.884,259.373,362.884,244.638,353.796,235.55z"/>
	<path style="fill:#D6E5F6;" d="M105.552,262.814c-4.363-4.366-10.283-6.817-16.455-6.817c-6.172,0-12.092,2.451-16.455,6.817
		L6.817,328.642c-9.089,9.089-9.089,23.823,0,32.914l65.827,65.824c4.364,4.364,10.285,6.816,16.455,6.816
		c6.173,0,12.092-2.451,16.457-6.817l65.821-65.824c9.089-9.089,9.089-23.822,0-32.912L105.552,262.814z"/>
	<path style="fill:#D6E5F6;" d="M105.552,38.072c-4.364-4.364-10.285-6.816-16.455-6.816c-6.173,0-12.092,2.451-16.455,6.816
		L6.817,103.898c-9.089,9.087-9.089,23.823,0,32.912l65.827,65.826c4.364,4.364,10.283,6.816,16.455,6.816
		c6.173,0,12.092-2.451,16.457-6.817l65.823-65.824c9.089-9.087,9.089-23.823,0-32.912L105.552,38.072z"/>
</g>
<g>
	<path style="fill:#A4C6EC;" d="M439.356,309.36c-4.364-4.364-10.282-6.817-16.454-6.817s-12.094,2.451-16.457,6.817l-65.821,65.827
		c-9.087,9.089-9.087,23.823,0,32.912l65.821,65.824c4.364,4.364,10.285,6.817,16.457,6.817c6.173,0,12.091-2.451,16.454-6.816
		l65.824-65.826c9.087-9.087,9.09-23.823,0-32.912L439.356,309.36z"/>
	<path style="fill:#A4C6EC;" d="M406.444,202.636c4.364,4.366,10.285,6.817,16.457,6.817c6.173,0,12.091-2.451,16.454-6.817
		l65.824-65.826c9.09-9.087,9.09-23.823,0-32.912l-65.823-65.826c-4.364-4.364-10.282-6.816-16.454-6.816
		s-12.094,2.451-16.457,6.816l-65.821,65.826c-9.087,9.087-9.087,23.823,0,32.912L406.444,202.636z"/>
	<path style="fill:#A4C6EC;" d="M353.796,235.55l-65.821-65.826c-4.367-4.364-10.285-6.817-16.457-6.817c-0.003,0-0.003,0-0.003,0
		v178.197c6.173,0,12.091-2.451,16.454-6.816l65.824-65.828C362.884,259.373,362.884,244.638,353.796,235.55z"/>
</g>
<g>
</g>
<g>
</g>
<g>
</g>
<g>
</g>
<g>
</g>
<g>
</g>
<g>
</g>
<g>
</g>
<g>
</g>
<g>
</g>
<g>
</g>
<g>
</g>
<g>
</g>
<g>
</g>
<g>
</g>
</svg>
