<?xml version="1.0" encoding="iso-8859-1"?>
<!-- Generator: Adobe Illustrator 19.0.0, SVG Export Plug-In . SVG Version: 6.00 Build 0)  -->
<svg version="1.1" id="Capa_1" xmlns="http://www.w3.org/2000/svg" xmlns:xlink="http://www.w3.org/1999/xlink" x="0px" y="0px"
	 viewBox="0 0 512 512" style="enable-background:new 0 0 512 512;" xml:space="preserve">
<path style="fill:#A7F9E9;" d="M441.662,475.256H70.338C31.491,475.256,0,443.765,0,404.918l0,0
	c0-38.847,31.491-70.338,70.338-70.338h371.324c38.847,0,70.338,31.491,70.338,70.338l0,0
	C512,443.765,480.509,475.256,441.662,475.256z"/>
<g>
	<path style="fill:#3EDDBF;" d="M511.996,404.915c0,19.432-7.876,37.01-20.596,49.744c-12.734,12.72-30.313,20.596-49.73,20.596
		H70.331c-38.836,0-70.327-31.491-70.327-70.341c0-4.082,0.345-8.078,1.006-11.973c5.692,33.13,34.567,58.354,69.32,58.354h371.338
		c19.418,0,36.996-7.876,49.73-20.596c10.047-10.061,17.075-23.141,19.59-37.758C511.651,396.837,511.996,400.833,511.996,404.915z"
		/>
	<path style="fill:#3EDDBF;" d="M115.603,424.264H88.179c-4.268,0-7.726-3.459-7.726-7.726s3.459-7.726,7.726-7.726h27.424
		c4.268,0,7.726,3.459,7.726,7.726S119.87,424.264,115.603,424.264z"/>
	<path style="fill:#3EDDBF;" d="M437.879,396.816h-27.423c-4.268,0-7.726-3.459-7.726-7.726s3.459-7.726,7.726-7.726h27.423
		c4.268,0,7.726,3.459,7.726,7.726S442.147,396.816,437.879,396.816z"/>
</g>
<path style="fill:#009900;" d="M145.796,374.715c-4.268,0-7.726-3.459-7.726-7.726V44.47c0-4.268,3.459-7.726,7.726-7.726
	s7.726,3.459,7.726,7.726v322.518C153.522,371.256,150.063,374.715,145.796,374.715z"/>
<path style="fill:#B4732D;" d="M145.796,238.594L145.796,238.594c-14.106,0-25.542-11.435-25.542-25.542V85.966
	c0-14.106,11.435-25.542,25.542-25.542l0,0c14.106,0,25.542,11.435,25.542,25.542v127.086
	C171.338,227.159,159.902,238.594,145.796,238.594z"/>
<path style="fill:#8B5016;" d="M171.34,85.962v127.094c0,14.103-11.435,25.538-25.549,25.538c-2.864,0-5.625-0.474-8.19-1.35
	c10.085-3.41,17.338-12.949,17.338-24.189V85.962c0-7.057-2.864-13.434-7.479-18.059c-2.74-2.74-6.109-4.863-9.859-6.119
	c2.565-0.886,5.326-1.36,8.19-1.36c7.057,0,13.444,2.864,18.069,7.479C168.476,72.528,171.34,78.905,171.34,85.962z"/>
<path style="fill:#009900;" d="M366.204,374.715c-4.268,0-7.726-3.459-7.726-7.726V44.47c0-4.268,3.459-7.726,7.726-7.726
	s7.726,3.459,7.726,7.726v322.518C373.931,371.256,370.472,374.715,366.204,374.715z"/>
<path style="fill:#B4732D;" d="M366.204,238.594L366.204,238.594c-14.106,0-25.542-11.435-25.542-25.542V85.966
	c0-14.106,11.435-25.542,25.542-25.542l0,0c14.106,0,25.542,11.435,25.542,25.542v127.086
	C391.746,227.159,380.31,238.594,366.204,238.594z"/>
<path style="fill:#8B5016;" d="M391.747,85.962v127.094c0,14.103-11.435,25.538-25.538,25.538c-2.864,0-5.625-0.474-8.2-1.35
	c10.086-3.42,17.338-12.96,17.338-24.189V85.962c0-7.057-2.854-13.434-7.479-18.059c-2.74-2.74-6.109-4.863-9.859-6.119
	c2.575-0.886,5.336-1.36,8.2-1.36c7.047,0,13.434,2.864,18.059,7.479C388.893,72.528,391.747,78.905,391.747,85.962z"/>
<path style="fill:#60DC4D;" d="M302.234,171.354c-1.751,2.308-3.503,4.636-5.243,6.964c-18.08,24.323-35.057,49.912-50.355,74.647
	c-21.16,34.192-39.116,66.735-52.374,91.985c-3.997,7.634-7.572,14.598-10.683,20.738h-51.056c-0.443-4.513,0.35-9.21,2.565-13.578
	c10.415-20.583,21.098-39.281,31.853-56.269c17.019-26.919,34.202-49.521,50.675-68.404c28.052-32.183,54.074-53.621,73.843-67.343
	c1.834-1.267,3.76-1.658,5.532-1.411C302.358,159.414,306.335,165.966,302.234,171.354z"/>
<g>
	<path style="fill:#26BA02;" d="M194.261,344.949c-3.997,7.634-7.572,14.598-10.683,20.738h-51.056
		c-0.443-4.513,0.35-9.21,2.565-13.578c10.415-20.583,21.098-39.281,31.853-56.269C176.171,310.943,185.319,327.282,194.261,344.949
		z"/>
	<path style="fill:#26BA02;" d="M296.991,158.683v19.635c-18.08,24.323-35.057,49.912-50.355,74.647
		c-13.382-3.131-24.261-12.846-29.02-25.528c28.052-32.183,54.074-53.621,73.843-67.343
		C293.293,158.827,295.219,158.435,296.991,158.683z"/>
</g>
<path style="fill:#A4E869;" d="M13.421,171.352c52.992,69.682,97.126,151.756,118.656,194.334h51.056
	c0.443-4.512-0.35-9.21-2.565-13.578C125.557,243.413,62.911,186.949,24.197,160.092C16.8,154.962,7.972,164.182,13.421,171.352z"/>
<path style="fill:#009900;" d="M256,374.715c-4.268,0-7.726-3.459-7.726-7.726V44.47c0-4.268,3.459-7.726,7.726-7.726
	s7.726,3.459,7.726,7.726v322.518C263.726,371.256,260.268,374.715,256,374.715z"/>
<path style="fill:#B4732D;" d="M256,238.594L256,238.594c-14.106,0-25.542-11.435-25.542-25.542V85.966
	c0-14.106,11.435-25.542,25.542-25.542l0,0c14.106,0,25.542,11.435,25.542,25.542v127.086
	C281.542,227.159,270.106,238.594,256,238.594z"/>
<path style="fill:#8B5016;" d="M281.538,85.962v127.094c0,14.103-11.435,25.538-25.538,25.538c-2.864,0-5.625-0.474-8.19-1.35
	c10.086-3.42,17.338-12.96,17.338-24.189V85.962c0-7.057-2.864-13.434-7.479-18.059c-2.74-2.74-6.109-4.863-9.859-6.119
	c2.565-0.886,5.326-1.36,8.19-1.36c7.047,0,13.434,2.864,18.059,7.479C278.685,72.528,281.538,78.905,281.538,85.962z"/>
<path style="fill:#3EDDBF;" d="M384.264,374.715h-270.77c-4.268,0-7.726-3.459-7.726-7.726c0-4.268,3.459-7.726,7.726-7.726h270.77
	c4.268,0,7.726,3.459,7.726,7.726C391.99,371.256,388.531,374.715,384.264,374.715z"/>
<path style="fill:#60DC4D;" d="M494.528,228.148c-52.992,69.682-97.125,151.756-118.656,194.334h-51.056
	c-0.443-4.512,0.35-9.21,2.565-13.578c55.012-108.694,117.657-165.158,156.371-192.015
	C491.149,211.757,499.978,220.978,494.528,228.148z"/>
<path style="fill:#3EDDBF;" d="M417.8,430.208H234.129c-4.268,0-7.726-3.459-7.726-7.726s3.459-7.726,7.726-7.726H417.8
	c4.268,0,7.726,3.459,7.726,7.726S422.067,430.208,417.8,430.208z"/>
<g>
</g>
<g>
</g>
<g>
</g>
<g>
</g>
<g>
</g>
<g>
</g>
<g>
</g>
<g>
</g>
<g>
</g>
<g>
</g>
<g>
</g>
<g>
</g>
<g>
</g>
<g>
</g>
<g>
</g>
</svg>
