<?xml version="1.0" encoding="iso-8859-1"?>
<!-- Generator: Adobe Illustrator 19.0.0, SVG Export Plug-In . SVG Version: 6.00 Build 0)  -->
<svg version="1.1" id="Capa_1" xmlns="http://www.w3.org/2000/svg" xmlns:xlink="http://www.w3.org/1999/xlink" x="0px" y="0px"
	 viewBox="0 0 428.607 428.607" style="enable-background:new 0 0 428.607 428.607;" xml:space="preserve">
<g>
	<path style="fill:#00ACEA;" d="M262.337,371.038c-27.69,0-41.273-15.673-53.29-29.78s-19.853-22.465-37.616-22.465
		s-26.645,9.927-37.616,22.465c-10.971,12.539-25.6,29.78-53.29,29.78s-41.273-15.673-53.29-29.78
		c-5.964-7.494-13.218-13.864-21.42-18.808c-5.194-2.597-7.299-8.912-4.702-14.106c2.597-5.194,8.912-7.299,14.106-4.702
		c10.801,5.998,20.232,14.183,27.69,24.033c10.971,12.539,19.853,22.465,37.616,22.465s26.645-9.927,37.616-22.465
		s25.6-29.78,53.29-29.78s41.273,15.673,53.29,29.78c12.016,14.106,19.853,22.465,37.616,22.465s26.645-9.927,37.616-22.465
		c10.971-12.539,25.6-29.78,53.29-29.78c27.69,0,41.796,16.196,53.29,29.257c4.801,6.472,10.624,12.119,17.241,16.718
		c4.905,3.174,6.309,9.723,3.135,14.629c-3.174,4.905-9.723,6.309-14.629,3.135c-8.112-5.691-15.332-12.558-21.42-20.376
		c-10.971-12.539-19.853-22.465-37.616-22.465s-26.645,9.927-37.616,22.465C304.655,353.797,290.027,371.038,262.337,371.038z"/>
	<path style="fill:#00ACEA;" d="M262.337,292.671c-27.69,0-41.273-15.673-53.29-29.78c-12.016-14.106-19.853-22.465-37.616-22.465
		s-26.645,9.927-37.616,22.465c-10.971,12.539-25.6,29.78-53.29,29.78s-41.273-15.673-53.29-29.78
		c-5.964-7.494-13.218-13.864-21.42-18.808c-5.194-2.597-7.299-8.912-4.702-14.106c2.597-5.194,8.912-7.299,14.106-4.702
		c10.801,5.998,20.232,14.183,27.69,24.033c10.971,12.539,19.853,22.465,37.616,22.465s26.645-9.927,37.616-22.465
		c10.971-12.539,25.6-29.78,53.29-29.78s41.273,15.673,53.29,29.78c12.016,14.106,19.853,22.465,37.616,22.465
		s26.645-9.927,37.616-22.465c10.971-12.539,25.6-29.78,53.29-29.78c27.69,0,41.796,16.196,53.29,29.257
		c4.801,6.472,10.624,12.119,17.241,16.718c4.905,3.174,6.309,9.723,3.135,14.629c-3.174,4.905-9.723,6.309-14.629,3.135l0,0
		c-8.112-5.691-15.332-12.558-21.42-20.376c-10.971-12.539-19.853-22.465-37.616-22.465s-26.645,9.927-37.616,22.465
		C304.655,275.43,290.027,292.671,262.337,292.671z"/>
	<path style="fill:#00ACEA;" d="M262.337,209.079c-27.69,0-41.273-15.673-53.29-29.78s-19.853-22.465-37.616-22.465
		s-26.645,9.927-37.616,22.465c-10.971,12.539-25.6,29.78-53.29,29.78s-41.273-15.673-53.29-29.78
		c-5.964-7.494-13.218-13.864-21.42-18.808c-5.194-2.597-7.299-8.912-4.702-14.106c2.597-5.194,8.912-7.299,14.106-4.702
		c10.801,5.998,20.232,14.183,27.69,24.033c10.971,12.539,19.853,22.465,37.616,22.465s26.645-9.927,37.616-22.465
		s25.6-29.78,53.29-29.78s41.273,15.673,53.29,29.78c12.016,14.106,19.853,22.465,37.616,22.465s26.645-9.927,37.616-22.465
		c10.971-12.539,25.6-29.78,53.29-29.78c27.69,0,41.796,16.196,53.29,29.257c4.801,6.472,10.624,12.119,17.241,16.718
		c4.905,3.174,6.309,9.723,3.135,14.629c-3.174,4.905-9.723,6.309-14.629,3.135c-8.112-5.691-15.332-12.558-21.42-20.376
		c-10.971-12.539-19.853-22.465-37.616-22.465s-26.645,9.927-37.616,22.465C304.655,191.838,290.027,209.079,262.337,209.079z"/>
	<path style="fill:#00ACEA;" d="M262.337,130.711c-27.69,0-41.273-15.673-53.29-29.78s-19.853-22.465-37.616-22.465
		s-26.645,9.927-37.616,22.465c-10.971,12.539-25.6,29.78-53.29,29.78s-41.273-15.673-53.29-29.78
		c-5.964-7.494-13.218-13.864-21.42-18.808c-5.194-2.597-7.299-8.912-4.702-14.106c2.597-5.194,8.912-7.299,14.106-4.702
		c10.801,5.998,20.232,14.183,27.69,24.033c10.971,12.539,19.853,22.465,37.616,22.465s26.645-9.927,37.616-22.465
		s25.6-29.78,53.29-29.78s41.273,15.673,53.29,29.78c12.016,14.106,19.853,22.465,37.616,22.465s26.645-9.927,37.616-22.465
		c10.971-12.539,25.6-29.78,53.29-29.78c27.69,0,41.796,16.196,53.29,29.257c4.801,6.472,10.624,12.119,17.241,16.718
		c4.905,3.174,6.309,9.723,3.135,14.629c-3.174,4.905-9.723,6.309-14.629,3.135c-8.112-5.691-15.332-12.558-21.42-20.376
		c-10.971-12.539-19.853-22.465-37.616-22.465s-26.645,9.927-37.616,22.465C304.655,113.471,290.027,130.711,262.337,130.711z"/>
</g>
<g>
</g>
<g>
</g>
<g>
</g>
<g>
</g>
<g>
</g>
<g>
</g>
<g>
</g>
<g>
</g>
<g>
</g>
<g>
</g>
<g>
</g>
<g>
</g>
<g>
</g>
<g>
</g>
<g>
</g>
</svg>
