<?xml version="1.0" encoding="iso-8859-1"?>
<!-- Generator: Adobe Illustrator 19.0.0, SVG Export Plug-In . SVG Version: 6.00 Build 0)  -->
<svg version="1.1" id="Layer_1" xmlns="http://www.w3.org/2000/svg" xmlns:xlink="http://www.w3.org/1999/xlink" x="0px" y="0px"
	 viewBox="0 0 512 512" style="enable-background:new 0 0 512 512;" xml:space="preserve">
<path style="fill:#7DC86E;" d="M247.172,308.966v185.379c0,4.875,3.948,8.828,8.828,8.828c4.879,0,8.828-3.953,8.828-8.828V308.966
	H247.172z"/>
<g>
	<path style="fill:#8CE16E;" d="M220.69,180.966c0,63.661,13.037,122.804,35.31,172.138c22.273-49.334,35.31-108.477,35.31-172.138
		S278.273,58.162,256,8.828C233.727,58.162,220.69,117.304,220.69,180.966z"/>
	<path style="fill:#8CE16E;" d="M110.508,392.489c42.441,7.244,83.438,5.952,119.009-2.142
		c-30.208-19.321-68.067-34.074-110.508-41.319S35.571,343.076,0,351.17C30.208,370.492,68.067,385.245,110.508,392.489z"/>
	<path style="fill:#8CE16E;" d="M180.896,465.841c21.22-9.482,37.7-24.063,48.621-41.273c-21.97-2.514-44.917,0.523-66.137,10.006
		s-37.702,24.063-48.621,41.273C136.728,478.359,159.676,475.322,180.896,465.841z"/>
	<path style="fill:#8CE16E;" d="M104.623,258.442c37.544,45.706,81.054,80.747,124.894,103.489
		c-14.349-48.097-40.597-97.978-78.141-143.683S70.323,137.501,26.483,114.759C40.832,162.856,67.08,212.737,104.623,258.442z"/>
	<path style="fill:#8CE16E;" d="M401.492,392.489c-42.441,7.244-83.438,5.952-119.009-2.142
		c30.208-19.321,68.067-34.074,110.508-41.319s83.438-5.952,119.009,2.142C481.792,370.492,443.933,385.245,401.492,392.489z"/>
	<path style="fill:#8CE16E;" d="M331.104,465.841c-21.22-9.482-37.7-24.063-48.621-41.273c21.97-2.514,44.917,0.523,66.137,10.006
		s37.7,24.063,48.621,41.273C375.272,478.359,352.324,475.322,331.104,465.841z"/>
	<path style="fill:#8CE16E;" d="M407.377,258.442c-37.544,45.706-81.054,80.747-124.894,103.489
		c14.349-48.097,40.597-97.978,78.141-143.683s81.054-80.747,124.894-103.489C471.168,162.856,444.92,212.737,407.377,258.442z"/>
</g>
<g>
	<path style="fill:#9BF57D;" d="M26.483,114.759l203.034,247.172c-14.349-48.097-40.597-97.977-78.141-143.683
		S70.323,137.501,26.483,114.759z"/>
	<path style="fill:#9BF57D;" d="M256,8.828v344.276c22.273-49.334,35.31-108.477,35.31-172.138S278.273,58.162,256,8.828z"/>
	<path style="fill:#9BF57D;" d="M407.378,258.442c37.543-45.706,63.79-95.587,78.14-143.683L282.483,361.931
		C326.323,339.189,369.832,304.148,407.378,258.442z"/>
	<path style="fill:#9BF57D;" d="M0,351.17l229.517,39.177c-30.208-19.321-68.067-34.074-110.508-41.319
		C76.568,341.784,35.571,343.078,0,351.17z"/>
	<path style="fill:#9BF57D;" d="M392.991,349.028c-42.442,7.244-80.3,21.997-110.508,41.319L512,351.17
		C476.429,343.078,435.431,341.784,392.991,349.028z"/>
	<path style="fill:#9BF57D;" d="M163.38,434.573c-21.22,9.482-37.702,24.063-48.621,41.272l114.759-51.278
		C207.548,422.053,184.599,425.091,163.38,434.573z"/>
	<path style="fill:#9BF57D;" d="M348.621,434.573c-21.22-9.482-44.169-12.52-66.138-10.006l114.759,51.278
		C386.322,458.636,369.841,444.055,348.621,434.573z"/>
</g>
<g>
</g>
<g>
</g>
<g>
</g>
<g>
</g>
<g>
</g>
<g>
</g>
<g>
</g>
<g>
</g>
<g>
</g>
<g>
</g>
<g>
</g>
<g>
</g>
<g>
</g>
<g>
</g>
<g>
</g>
</svg>
